<svg id="Layer_1" data-name="Layer 1" xmlns="http://www.w3.org/2000/svg" viewBox="0 0 517.36 516.05"><defs><style>.cls-1{fill:#a7a9ac;}.cls-2,.cls-3{fill:#062e66;}.cls-2{opacity:0.1;}.cls-4{fill:#e2b04d;}</style></defs><title>four</title><rect class="cls-1" width="517.36" height="516.05"/><path class="cls-2" d="M365.53,449.13H336.86c.26-4.58.39-9.74.39-15.54,0-1.45-.08-2.87-.22-4.28,53.85-22.84,91.57-74.84,91.57-135.22,0-69.23-49.57-127.46-116.2-143.33a27.89,27.89,0,0,0-18.18-15.18l24.06-76.31.85.23a7.37,7.37,0,0,0,9-4.89l2.34-8.08a7,7,0,0,0-5.09-8.63L254,18.94a7.37,7.37,0,0,0-9,4.88l-2.34,8.09a6.91,6.91,0,0,0,3.83,8.16L202.24,180.45l-1.78-.51-11.81,37.43,7.68,2.22a13.32,13.32,0,0,0-.85,2,12.61,12.61,0,0,0,4.28,13.67L191,267.19a8,8,0,0,0,6,9.8l29.7,7.48a8.43,8.43,0,0,0,10.24-5.72l8.49-30.93a13.28,13.28,0,0,0,10-8.88,13.88,13.88,0,0,0,.46-2.14l7.67,2.22,11.8-37.42-1.79-.52L278,187.2a29.21,29.21,0,0,0,8.63,1.3,28.68,28.68,0,0,0,20.3-8.3c52.06,13.32,90.57,59.32,90.57,113.89,0,48.49-30.42,90.22-73.74,108.26a47.3,47.3,0,0,0-71.2,7.3,122.4,122.4,0,0,1-66.93-36.73h102V342.84H142.88v30.08h4.45a14.45,14.45,0,0,0,1.84,3.66,153.09,153.09,0,0,0,96,62.11q.07,5.65.35,10.44H137.26c-19.09,0-34.56,25.6-34.56,57.17H400.08C400.08,474.73,384.61,449.13,365.53,449.13Z"/><path class="cls-3" d="M265.17,436c-50.86,0-98.22-24.35-126.69-65.13a14.52,14.52,0,0,1,4.28-20.69,16,16,0,0,1,21.61,4.1c22.69,32.48,60.36,51.88,100.8,51.88,67,0,121.58-52.84,121.58-117.78S332.21,170.61,265.17,170.61c-8.61,0-15.59-6.67-15.59-14.91s7-14.93,15.59-14.93c84.22,0,152.74,66.23,152.74,147.63S349.39,436,265.17,436Z"/><polygon class="cls-4" points="277.87 367.24 277.87 367.24 133.18 367.24 133.18 367.24 133.18 337.16 133.18 337.16 277.87 337.16 277.87 337.16 277.87 367.24"/><path class="cls-4" d="M93,500.61h0c0-31.57,15.47-57.16,34.56-57.16H355.82c19.08,0,34.55,25.59,34.55,57.16h0"/><path class="cls-4" d="M327.55,427.91c0,72.7-20.63,44.12-46.07,44.12s-46.08,28.58-46.08-44.12c0-24.37,20.63-44.12,46.08-44.12S327.55,403.54,327.55,427.91Z"/><path class="cls-3" d="M267.19,420.62c0-7.56,6.39-13.68,14.28-13.68s14.29,6.12,14.29,13.68-6.4,13.68-14.29,13.68S267.19,428.17,267.19,420.62Z"/><path class="cls-3" d="M227.2,273.07A8.42,8.42,0,0,1,217,278.79l-29.71-7.49a8,8,0,0,1-6-9.79l14.21-51.73a8.42,8.42,0,0,1,10.23-5.71l29.71,7.48a8,8,0,0,1,6,9.8Z"/><path class="cls-3" d="M245.72,233.25a13.57,13.57,0,0,1-16.81,8.63L194.81,232a12.85,12.85,0,0,1-9-16.11h0a13.59,13.59,0,0,1,16.82-8.64l34.11,9.86a12.84,12.84,0,0,1,9,16.11Z"/><polygon class="cls-3" points="252.35 231.92 181.02 211.31 237.67 31.64 309 52.26 252.35 231.92"/><polygon class="cls-4" points="253.86 233.34 178.95 211.68 190.75 174.25 265.65 195.92 253.86 233.34"/><path class="cls-4" d="M318.43,48.93a7.37,7.37,0,0,1-9,4.88l-71.35-19a7,7,0,0,1-5.1-8.63l2.35-8.09a7.36,7.36,0,0,1,9-4.88l71.35,19a7,7,0,0,1,5.1,8.63Z"/><path class="cls-4" d="M248.71,155.84c0-14.89,12.61-27,28.16-27S305,141,305,155.84s-12.61,27-28.17,27S248.71,170.74,248.71,155.84Z"/></svg>