<?xml version="1.0" encoding="iso-8859-1"?>
<!-- Generator: Adobe Illustrator 13.0.0, SVG Export Plug-In . SVG Version: 6.00 Build 14948)  -->
<!DOCTYPE svg PUBLIC "-//W3C//DTD SVG 1.1//EN" "http://www.w3.org/Graphics/SVG/1.1/DTD/svg11.dtd">
<svg version="1.1" id="Layer_1" xmlns="http://www.w3.org/2000/svg" xmlns:xlink="http://www.w3.org/1999/xlink" x="0px" y="0px"
	 viewBox="0 0 127 127.973" style="enable-background:new 0 0 127 127.973;"
	 xml:space="preserve">
<g xmlns="http://www.w3.org/2000/svg">
	<g>
		<path style="fill:#5D87A1;" d="M19.388,60.402c-3.524,3.534-9.222,3.534-12.746,0c-3.524-3.52-3.524-9.222,0-12.73l20.86-20.866    l5.577,5.577L12.082,53.386l1.571,1.587l21.002-21.014l5.597,5.593L19.388,60.402"/>
	</g>
	<path style="fill:#5D87A1;" d="M35.626,47.449c3.53-3.523,9.222-3.523,12.743,0c3.512,3.509,3.523,9.211,0,12.735L27.503,81.048   l-5.579-5.579l21.02-21.003l-1.593-1.588L20.354,73.893l-5.596-5.588L35.626,47.449"/>
	<path style="fill:#5D87A1;" d="M62.676,90.74c3.523,3.51,3.523,9.211,0,12.714c-3.52,3.524-9.227,3.524-12.747,0l-20.85-20.859   l5.577-5.566l21.007,21.003l1.584-1.577L36.233,75.443l5.577-5.578L62.676,90.74"/>
	<path style="fill:#5D87A1;" d="M49.707,74.492c-3.518-3.524-3.518-9.239,0-12.736c3.521-3.539,9.227-3.539,12.75,0l20.865,20.849   l-5.585,5.579L56.723,67.182l-1.576,1.575L76.15,89.762l-5.578,5.58L49.707,74.492"/>
	<path style="fill:#5D87A1;" d="M76.761,60.402c-3.507,3.507-9.211,3.507-12.734,0c-3.515-3.52-3.515-9.222,0-12.742l20.865-20.865   l5.58,5.578L69.465,53.386l1.577,1.577L92.045,33.96l5.592,5.576L76.761,60.402"/>
	<path style="fill:#5D87A1;" d="M93.015,47.438c3.52-3.523,9.223-3.523,12.732,0c3.517,3.505,3.533,9.223,0,12.746L84.891,81.031   l-5.588-5.579l21.014-21.013l-1.574-1.561L77.737,73.865l-5.588-5.561L93.015,47.438"/>
	<g>
		<path style="fill:#5D87A1;" d="M62.676,33.35c3.523,3.523,3.523,9.21,0,12.75c-3.52,3.507-9.227,3.507-12.747,0l-20.85-20.865    l5.577-5.593l21.007,21.013l1.584-1.573L36.233,18.08l5.577-5.591L62.676,33.35"/>
		<path style="fill:#5D87A1;" d="M49.707,17.113c-3.518-3.523-3.518-9.221,0-12.745c3.521-3.507,9.227-3.523,12.75,0l20.865,20.865    l-5.585,5.579L56.723,9.797l-1.576,1.588L76.15,32.399l-5.578,5.56L49.707,17.113"/>
	</g>
	
	
	
	
	
	
	
	
	
	
	
	
	

</g>
</svg>
