<?xml version="1.0" encoding="UTF-8" standalone="no"?>
<!DOCTYPE svg PUBLIC "-//W3C//DTD SVG 1.1//EN" "http://www.w3.org/Graphics/SVG/1.1/DTD/svg11.dtd">
<svg version="1.1" xmlns="http://www.w3.org/2000/svg" xmlns:xlink="http://www.w3.org/1999/xlink" preserveAspectRatio="xMidYMid meet" viewBox="0 0 27 27" width="27" height="27"><defs><path d="M14 0.57C6.82 0.57 1 6.39 1 13.57C1 20.75 6.82 26.57 14 26.57C21.18 26.57 27 20.75 27 13.57C27 6.39 21.18 0.57 14 0.57Z" id="bPAlpetgd"></path><path d="M21.18 2.73L21.63 3.04L22.06 3.37L22.48 3.72L22.88 4.08L23.27 4.46L23.64 4.85L24 5.27L24.33 5.69L24.65 6.13L24.96 6.58L25.24 7.05L25.5 7.53L25.75 8.02L25.97 8.52L26.17 9.03L26.36 9.56L26.52 10.09L26.65 10.63L26.77 11.18L26.86 11.74L26.93 12.31L26.97 12.89L26.97 12.9L26.97 12.94L26.96 13.02L26.96 13.06L26.96 13.1L26.96 13.12L26.95 13.14L26.95 13.18L26.95 13.2L26.95 13.22L26.95 13.24L26.95 13.25L26.94 13.27L26.94 13.29L26.94 13.31L26.94 13.33L26.94 13.35L26.94 13.38L26.31 13.7L25.44 14.7L25.06 15.57L25.06 15.57L25.05 15.57L25.04 15.57L25.03 15.57L25.01 15.57L25 15.57L24.98 15.57L24.96 15.56L24.93 15.56L24.91 15.55L24.88 15.54L24.85 15.53L24.82 15.52L24.79 15.51L24.76 15.49L24.73 15.47L24.69 15.45L24.66 15.43L24.62 15.4L24.58 15.37L24.55 15.34L24.51 15.3L24.47 15.26L24.44 15.23L24.42 15.19L24.4 15.15L24.38 15.11L24.36 15.06L24.35 15.01L24.34 14.95L24.32 14.9L24.31 14.84L24.31 14.78L24.3 14.71L24.29 14.65L24.28 14.58L24.28 14.52L24.27 14.45L24.27 14.38L24.26 14.31L24.25 14.24L24.24 14.18L24.24 14.11L24.23 14.04L24.21 13.98L24.2 13.92L24.19 13.85L24.17 13.79L24.14 13.73L24.11 13.67L24.08 13.61L24.04 13.55L23.99 13.49L23.95 13.43L23.9 13.38L23.84 13.32L23.79 13.26L23.73 13.21L23.67 13.15L23.61 13.1L23.55 13.05L23.49 13L23.44 12.95L23.38 12.9L23.32 12.85L23.27 12.8L23.22 12.76L23.18 12.72L23.13 12.68L23.1 12.64L23.06 12.6L23.03 12.57L22.99 12.54L22.95 12.51L22.9 12.49L22.85 12.47L22.8 12.45L22.74 12.43L22.69 12.42L22.62 12.41L22.56 12.4L22.5 12.39L22.44 12.39L22.37 12.38L22.31 12.38L22.25 12.38L22.19 12.38L22.13 12.38L22.07 12.38L22.01 12.38L21.96 12.38L21.91 12.38L21.86 12.38L21.82 12.38L21.78 12.38L21.74 12.38L21.7 12.37L21.66 12.35L21.62 12.33L21.57 12.3L21.52 12.27L21.47 12.24L21.42 12.2L21.37 12.16L21.32 12.11L21.27 12.07L21.22 12.03L21.17 11.98L21.13 11.94L21.09 11.89L21.05 11.85L21.01 11.81L20.98 11.78L20.95 11.75L20.92 11.72L20.9 11.7L20.89 11.68L20.88 11.67L20.72 11.73L21.28 12.7L22.03 12.7L22.04 12.7L22.05 12.7L22.07 12.71L22.09 12.73L22.12 12.75L22.16 12.77L22.2 12.79L22.24 12.82L22.28 12.85L22.33 12.88L22.37 12.91L22.42 12.95L22.46 12.99L22.51 13.03L22.55 13.08L22.58 13.12L22.62 13.17L22.64 13.22L22.67 13.27L22.68 13.32L22.69 13.38L22.69 13.43L22.68 13.49L22.66 13.54L22.64 13.57L22.62 13.6L22.59 13.62L22.56 13.64L22.53 13.67L22.49 13.69L22.44 13.71L22.39 13.73L22.34 13.75L22.29 13.77L22.23 13.79L22.17 13.82L22.11 13.84L22.04 13.87L21.97 13.89L21.9 13.92L21.83 13.95L21.76 13.99L21.69 14.02L21.61 14.06L21.54 14.11L21.46 14.15L21.39 14.2L21.31 14.26L21.2 14.34L21.1 14.41L21 14.48L20.9 14.54L20.81 14.6L20.72 14.65L20.64 14.69L20.56 14.73L20.48 14.76L20.41 14.79L20.34 14.82L20.28 14.84L20.22 14.86L20.17 14.87L20.12 14.89L20.08 14.9L20.04 14.9L20 14.91L19.97 14.91L19.95 14.91L19.93 14.92L19.92 14.92L19.91 14.92L19.9 14.91L19.9 14.9L19.89 14.88L19.88 14.86L19.86 14.82L19.84 14.78L19.82 14.74L19.79 14.69L19.76 14.63L19.73 14.57L19.7 14.5L19.66 14.42L19.63 14.34L19.59 14.25L19.55 14.16L19.51 14.07L19.46 13.97L19.42 13.87L19.38 13.76L19.33 13.65L19.29 13.53L19.24 13.41L19.2 13.29L19.16 13.17L19.13 13.11L19.11 13.05L19.09 12.99L19.06 12.93L19.03 12.87L19 12.82L18.97 12.76L18.94 12.71L18.91 12.66L18.87 12.6L18.84 12.55L18.81 12.51L18.78 12.46L18.75 12.41L18.72 12.37L18.69 12.33L18.66 12.29L18.64 12.26L18.61 12.22L18.59 12.19L18.57 12.17L18.56 12.14L18.54 12.12L18.53 12.1L18.52 12.09L18.52 12.09L18.51 12.07L18.51 12.07L18.5 12.06L18.49 12.05L18.47 12.01L18.46 12.04L18.45 12.07L18.45 12.1L18.44 12.13L18.44 12.17L18.44 12.2L18.44 12.24L18.44 12.27L18.44 12.31L18.44 12.35L18.44 12.38L18.44 12.42L18.45 12.46L18.45 12.5L18.46 12.54L18.47 12.58L18.47 12.61L18.48 12.65L18.49 12.69L18.5 12.73L18.52 12.77L18.53 12.81L18.55 12.85L18.56 12.88L18.58 12.93L18.61 12.99L18.64 13.05L18.67 13.12L18.7 13.19L18.74 13.26L18.78 13.34L18.81 13.42L18.85 13.5L18.94 13.67L18.98 13.75L19.02 13.83L19.06 13.92L19.09 14L19.13 14.08L19.17 14.15L19.2 14.22L19.23 14.29L19.26 14.35L19.29 14.41L19.31 14.46L19.33 14.5L19.34 14.54L19.35 14.58L19.36 14.62L19.37 14.66L19.37 14.71L19.37 14.76L19.37 14.81L19.37 14.87L19.36 14.92L19.36 14.98L19.35 15.04L19.34 15.1L19.33 15.15L19.33 15.21L19.32 15.26L19.31 15.31L19.3 15.36L19.29 15.41L19.28 15.45L19.27 15.48L19.26 15.51L19.26 15.54L19.25 15.56L19.25 15.57L19.25 15.57L19.26 15.57L19.27 15.58L19.28 15.58L19.3 15.58L19.32 15.59L19.35 15.59L19.37 15.59L19.4 15.6L19.43 15.6L19.46 15.61L19.49 15.61L19.53 15.61L19.56 15.61L19.59 15.61L19.62 15.62L19.65 15.61L19.68 15.61L19.71 15.61L19.74 15.61L19.76 15.6L19.78 15.59L19.8 15.58L19.81 15.57L19.83 15.56L19.85 15.55L19.87 15.54L19.89 15.53L19.92 15.52L19.95 15.51L19.98 15.5L20.01 15.49L20.04 15.48L20.08 15.47L20.15 15.46L20.18 15.45L20.22 15.44L20.25 15.43L20.29 15.42L20.32 15.41L20.35 15.4L20.37 15.39L20.4 15.38L20.42 15.36L20.44 15.35L20.46 15.34L20.47 15.32L20.48 15.31L20.5 15.29L20.52 15.27L20.54 15.26L20.56 15.24L20.59 15.22L20.62 15.2L20.65 15.19L20.69 15.17L20.72 15.15L20.75 15.14L20.79 15.12L20.82 15.11L20.86 15.09L20.89 15.08L20.92 15.07L20.95 15.06L20.98 15.05L21.01 15.04L21.03 15.04L21.05 15.04L21.07 15.04L21.08 15.04L21.09 15.04L21.1 15.05L21.11 15.06L21.11 15.07L21.11 15.08L21.11 15.1L21.11 15.12L21.1 15.14L21.1 15.17L21.09 15.2L21.08 15.23L21.07 15.27L21.06 15.31L21.04 15.36L21.03 15.41L21.01 15.47L20.99 15.53L20.97 15.59L20.94 15.66L20.91 15.74L20.89 15.82L20.85 15.9L20.82 16L20.79 16.09L20.75 16.2L20.71 16.3L20.67 16.39L20.63 16.48L20.59 16.55L20.55 16.63L20.5 16.69L20.46 16.75L20.42 16.8L20.37 16.85L20.33 16.89L20.29 16.93L20.24 16.96L20.2 17L20.16 17.03L20.12 17.05L20.08 17.08L20.04 17.1L20 17.13L19.97 17.15L19.93 17.18L19.9 17.2L19.87 17.23L19.84 17.26L19.81 17.29L19.79 17.32L19.76 17.36L19.73 17.39L19.71 17.42L19.68 17.45L19.65 17.48L19.62 17.51L19.59 17.54L19.56 17.57L19.53 17.59L19.5 17.62L19.47 17.65L19.44 17.67L19.41 17.7L19.38 17.72L19.35 17.75L19.32 17.77L19.29 17.79L19.26 17.82L19.23 17.84L19.2 17.86L19.18 17.88L19.15 17.9L19.13 17.92L19.1 17.94L19.08 17.96L19.07 18L19.06 18.04L19.05 18.09L19.04 18.14L19.04 18.19L19.04 18.25L19.04 18.31L19.04 18.38L19.05 18.44L19.06 18.51L19.06 18.58L19.07 18.65L19.08 18.72L19.09 18.79L19.1 18.86L19.1 18.93L19.11 19L19.12 19.06L19.12 19.13L19.13 19.19L19.13 19.24L19.13 19.29L19.12 19.34L19.11 19.38L19.11 19.43L19.09 19.47L19.08 19.52L19.06 19.56L19.05 19.6L19.03 19.65L19 19.69L18.98 19.73L18.95 19.77L18.93 19.81L18.9 19.84L18.87 19.88L18.84 19.92L18.81 19.96L18.77 20L18.74 20.03L18.71 20.07L18.67 20.11L18.64 20.15L18.6 20.18L18.57 20.22L18.53 20.26L18.49 20.3L18.46 20.34L18.41 20.38L18.37 20.42L18.32 20.46L18.28 20.51L18.23 20.55L18.18 20.59L18.13 20.64L18.08 20.68L18.03 20.73L17.98 20.77L17.93 20.82L17.87 20.86L17.82 20.91L17.78 20.95L17.73 20.99L17.68 21.03L17.63 21.08L17.59 21.11L17.55 21.15L17.51 21.19L17.47 21.23L17.44 21.26L17.4 21.29L17.37 21.33L17.34 21.37L17.31 21.41L17.28 21.45L17.25 21.49L17.22 21.54L17.19 21.58L17.16 21.63L17.13 21.67L17.11 21.72L17.08 21.77L17.05 21.81L17.03 21.86L17 21.9L16.98 21.94L16.96 21.98L16.93 22.02L16.91 22.06L16.89 22.09L16.87 22.12L16.85 22.15L16.83 22.17L16.81 22.2L16.79 22.22L16.76 22.24L16.72 22.26L16.68 22.28L16.63 22.31L16.58 22.33L16.52 22.35L16.46 22.38L16.39 22.4L16.33 22.42L16.26 22.44L16.19 22.46L16.12 22.48L16.05 22.49L15.98 22.51L15.91 22.52L15.84 22.53L15.78 22.54L15.72 22.55L15.66 22.55L15.61 22.56L15.57 22.55L15.53 22.55L15.5 22.54L15.47 22.53L15.45 22.52L15.42 22.52L15.39 22.51L15.37 22.5L15.34 22.5L15.32 22.49L15.3 22.49L15.28 22.48L15.26 22.48L15.24 22.47L15.22 22.47L15.21 22.46L15.19 22.46L15.18 22.45L15.16 22.44L15.15 22.43L15.14 22.42L15.14 22.41L15.13 22.4L15.13 22.38L15.12 22.36L15.12 22.34L15.13 22.32L15.12 22.3L15.12 22.27L15.11 22.24L15.09 22.2L15.07 22.16L15.04 22.12L15.02 22.08L14.98 22.04L14.95 21.99L14.91 21.95L14.88 21.9L14.84 21.85L14.8 21.81L14.76 21.76L14.72 21.71L14.68 21.67L14.65 21.62L14.61 21.58L14.58 21.54L14.55 21.5L14.52 21.47L14.5 21.44L14.48 21.41L14.47 21.38L14.46 21.36L14.44 21.33L14.43 21.3L14.41 21.27L14.4 21.23L14.38 21.19L14.36 21.15L14.34 21.1L14.32 21.05L14.3 21.01L14.28 20.96L14.26 20.91L14.24 20.85L14.22 20.8L14.21 20.74L14.19 20.69L14.17 20.64L14.16 20.58L14.14 20.53L14.13 20.47L14.12 20.42L14.11 20.36L14.1 20.31L14.09 20.26L14.09 20.21L14.09 20.16L14.09 20.11L14.1 20.06L14.1 20.01L14.11 19.97L14.12 19.92L14.13 19.87L14.15 19.83L14.16 19.78L14.18 19.73L14.2 19.69L14.22 19.64L14.24 19.6L14.26 19.56L14.28 19.51L14.3 19.47L14.32 19.42L14.34 19.38L14.36 19.34L14.38 19.29L14.4 19.25L14.42 19.21L14.44 19.17L14.45 19.12L14.46 19.08L14.47 19.04L14.47 18.99L14.47 18.95L14.46 18.91L14.45 18.87L14.43 18.83L14.42 18.79L14.4 18.75L14.38 18.71L14.36 18.67L14.33 18.63L14.31 18.59L14.28 18.56L14.26 18.52L14.23 18.49L14.21 18.46L14.19 18.42L14.16 18.39L14.14 18.37L14.12 18.34L14.11 18.31L14.09 18.29L14.08 18.27L14.07 18.24L14.05 18.21L14.04 18.17L14.03 18.14L14.01 18.1L14 18.06L13.99 18.02L13.97 17.97L13.96 17.93L13.94 17.88L13.93 17.84L13.91 17.79L13.9 17.74L13.89 17.69L13.87 17.64L13.86 17.6L13.84 17.55L13.83 17.5L13.81 17.46L13.8 17.41L13.78 17.37L13.77 17.33L13.75 17.29L13.73 17.25L13.72 17.22L13.7 17.18L13.69 17.14L13.67 17.11L13.65 17.07L13.63 17.04L13.61 17L13.6 16.97L13.58 16.94L13.56 16.91L13.54 16.88L13.52 16.85L13.5 16.82L13.48 16.79L13.46 16.77L13.44 16.74L13.42 16.72L13.4 16.7L13.39 16.68L13.37 16.65L13.35 16.64L13.33 16.62L13.31 16.6L13.29 16.59L13.27 16.57L13.24 16.56L13.22 16.55L13.19 16.54L13.15 16.53L13.12 16.52L13.08 16.51L13.04 16.5L13 16.49L12.96 16.49L12.92 16.48L12.88 16.47L12.84 16.47L12.8 16.46L12.76 16.46L12.71 16.46L12.67 16.45L12.64 16.45L12.6 16.45L12.56 16.45L12.53 16.45L12.5 16.45L12.47 16.45L12.44 16.45L12.41 16.45L12.38 16.45L12.34 16.46L12.31 16.47L12.27 16.47L12.23 16.48L12.19 16.49L12.16 16.5L12.12 16.52L12.08 16.53L12.04 16.54L12 16.55L11.97 16.57L11.93 16.58L11.89 16.6L11.86 16.61L11.83 16.62L11.8 16.64L11.77 16.65L11.75 16.66L11.72 16.67L11.7 16.69L11.69 16.7L11.67 16.71L11.64 16.71L11.61 16.72L11.56 16.72L11.51 16.72L11.46 16.72L11.4 16.71L11.34 16.71L11.28 16.7L11.21 16.69L11.14 16.68L11.07 16.67L11 16.66L10.93 16.64L10.86 16.63L10.79 16.61L10.73 16.59L10.67 16.57L10.61 16.55L10.56 16.53L10.51 16.51L10.47 16.49L10.43 16.47L10.41 16.45L10.38 16.42L10.35 16.39L10.32 16.36L10.29 16.33L10.26 16.3L10.22 16.26L10.18 16.22L10.14 16.18L10.1 16.14L10.05 16.1L10.01 16.06L9.96 16.02L9.91 15.97L9.86 15.93L9.81 15.89L9.76 15.85L9.71 15.81L9.66 15.77L9.61 15.73L9.57 15.69L9.52 15.66L9.47 15.63L9.42 15.6L9.38 15.57L9.33 15.54L9.29 15.51L9.26 15.47L9.22 15.42L9.19 15.37L9.17 15.31L9.14 15.25L9.12 15.18L9.1 15.12L9.09 15.05L9.07 14.97L9.06 14.9L9.05 14.83L9.04 14.75L9.03 14.68L9.03 14.6L9.02 14.53L9.02 14.46L9.01 14.39L9.01 14.32L9.01 14.26L9 14.2L9 14.15L9 14.1L9 14.05L9 14L9 13.95L9 13.88L9 13.82L9 13.75L9.01 13.68L9.01 13.61L9.02 13.53L9.02 13.46L9.03 13.38L9.04 13.3L9.05 13.22L9.06 13.14L9.07 13.05L9.08 12.97L9.09 12.89L9.1 12.82L9.12 12.74L9.13 12.66L9.14 12.59L9.16 12.52L9.17 12.45L9.19 12.38L9.2 12.32L9.22 12.27L9.25 12.22L9.27 12.17L9.3 12.12L9.33 12.08L9.37 12.05L9.4 12.01L9.44 11.98L9.47 11.95L9.51 11.92L9.55 11.89L9.59 11.87L9.62 11.84L9.66 11.82L9.7 11.8L9.73 11.77L9.77 11.75L9.8 11.72L9.83 11.7L9.86 11.67L9.89 11.64L9.92 11.61L9.94 11.57L9.96 11.54L9.98 11.5L10 11.46L10.03 11.43L10.06 11.39L10.08 11.36L10.11 11.32L10.14 11.29L10.17 11.25L10.19 11.22L10.22 11.18L10.25 11.15L10.28 11.12L10.3 11.09L10.33 11.06L10.35 11.03L10.38 11L10.4 10.97L10.42 10.94L10.44 10.91L10.46 10.89L10.48 10.87L10.49 10.84L10.5 10.82L10.51 10.8L10.52 10.78L10.54 10.77L10.56 10.75L10.58 10.74L10.6 10.73L10.62 10.72L10.65 10.71L10.67 10.7L10.7 10.69L10.72 10.68L10.75 10.67L10.78 10.67L10.81 10.66L10.84 10.65L10.87 10.65L10.9 10.64L10.93 10.63L10.96 10.62L10.99 10.61L11.01 10.6L11.04 10.59L11.07 10.58L11.09 10.57L11.12 10.56L11.14 10.55L11.17 10.54L11.19 10.54L11.21 10.53L11.23 10.53L11.25 10.53L11.27 10.53L11.29 10.53L11.31 10.53L11.33 10.53L11.34 10.53L11.36 10.54L11.37 10.54L11.38 10.54L11.39 10.55L11.4 10.55L11.41 10.56L11.42 10.56L11.43 10.56L11.43 10.57L11.44 10.57L11.44 10.56L11.45 10.54L11.46 10.52L11.47 10.5L11.49 10.49L11.52 10.47L11.54 10.45L11.57 10.43L11.6 10.41L11.63 10.39L11.66 10.37L11.69 10.35L11.72 10.34L11.75 10.32L11.78 10.3L11.81 10.29L11.83 10.28L11.86 10.26L11.88 10.25L11.9 10.24L11.92 10.24L11.93 10.23L11.94 10.23L12.18 10.21L12.93 10.14L13.23 10.11L13.55 10.08L13.69 10.07L13.71 10.07L13.74 10.07L13.76 10.08L13.79 10.09L13.81 10.1L13.83 10.12L13.84 10.13L13.86 10.15L13.87 10.17L13.89 10.19L13.9 10.21L13.91 10.24L13.92 10.26L13.93 10.28L13.94 10.3L13.95 10.32L13.95 10.34L13.96 10.36L13.96 10.37L13.96 10.39L13.97 10.4L13.97 10.41L13.97 10.42L13.97 10.42L13.97 10.43L13.97 10.45L13.98 10.47L13.98 10.5L13.99 10.54L13.99 10.57L14 10.62L14.01 10.66L14.02 10.71L14.04 10.76L14.05 10.81L14.07 10.86L14.08 10.91L14.1 10.96L14.13 11L14.15 11.05L14.17 11.09L14.2 11.13L14.23 11.17L14.26 11.2L14.3 11.23L14.34 11.25L14.38 11.26L14.42 11.27L14.46 11.27L14.51 11.28L14.55 11.28L14.6 11.28L14.65 11.27L14.7 11.27L14.75 11.26L14.8 11.25L14.85 11.24L14.9 11.23L14.95 11.22L15 11.21L15.04 11.19L15.08 11.18L15.12 11.16L15.16 11.15L15.19 11.14L15.22 11.12L15.25 11.11L15.27 11.1L15.29 11.09L15.3 11.08L15.31 11.07L15.33 11.07L15.36 11.06L15.4 11.06L15.46 11.07L15.53 11.08L15.61 11.08L15.71 11.09L15.8 11.11L15.91 11.12L16.02 11.13L16.14 11.15L16.25 11.17L16.37 11.18L16.48 11.2L16.6 11.21L16.71 11.22L16.81 11.24L16.91 11.25L17 11.26L17.08 11.26L17.15 11.27L17.21 11.27L17.25 11.26L17.28 11.26L17.3 11.25L17.33 11.24L17.36 11.24L17.4 11.23L17.43 11.22L17.47 11.22L17.51 11.21L17.56 11.2L17.61 11.2L17.65 11.19L17.7 11.19L17.75 11.18L17.8 11.17L17.85 11.17L17.9 11.16L17.94 11.16L17.99 11.15L18.04 11.14L18.08 11.14L18.12 11.13L18.16 11.12L18.19 11.12L18.22 11.11L18.25 11.1L18.44 11.04L18.38 10.35L18.36 10.35L18.35 10.36L18.33 10.36L18.31 10.36L18.29 10.36L18.26 10.36L18.24 10.36L18.21 10.36L18.18 10.36L18.14 10.36L18.11 10.36L18.07 10.36L18.04 10.36L18 10.36L17.96 10.36L17.92 10.36L17.88 10.35L17.84 10.35L17.8 10.34L17.76 10.34L17.73 10.33L17.69 10.32L17.65 10.32L17.62 10.31L17.58 10.3L17.55 10.3L17.51 10.29L17.48 10.29L17.44 10.29L17.41 10.29L17.38 10.29L17.34 10.28L17.31 10.28L17.28 10.28L17.26 10.28L17.23 10.28L17.21 10.28L17.19 10.29L17.16 10.29L17.15 10.29L17.13 10.29L17.12 10.29L17.11 10.29L17.09 10.29L17.09 10.27L17.07 10.22L17.06 10.17L17.04 10.11L17.03 10.07L17.01 10.04L17 10L16.99 9.96L16.98 9.91L16.96 9.87L16.95 9.82L16.93 9.78L16.92 9.73L16.9 9.68L16.89 9.63L16.87 9.58L16.86 9.53L16.84 9.48L16.84 9.43L16.84 9.39L16.87 9.35L16.9 9.32L16.94 9.3L17 9.28L17.06 9.26L17.13 9.25L17.21 9.24L17.29 9.24L17.37 9.23L17.45 9.23L17.54 9.24L17.63 9.24L17.71 9.24L17.79 9.25L17.86 9.26L17.93 9.26L18 9.27L18.05 9.28L18.09 9.28L18.13 9.29L18.15 9.29L18.16 9.29L18.18 9.29L18.2 9.3L18.22 9.3L18.25 9.3L18.28 9.31L18.31 9.31L18.35 9.31L18.39 9.32L18.43 9.32L18.47 9.32L18.52 9.33L18.57 9.33L18.62 9.33L18.67 9.33L18.72 9.33L18.77 9.33L18.82 9.34L18.87 9.33L18.92 9.33L18.97 9.33L19.02 9.33L19.06 9.32L19.11 9.32L19.15 9.31L19.18 9.3L19.21 9.28L19.24 9.27L19.26 9.25L19.28 9.23L19.3 9.21L19.31 9.19L19.32 9.17L19.33 9.14L19.34 9.12L19.34 9.09L19.34 9.06L19.34 9.03L19.34 9L19.33 8.97L19.32 8.94L19.31 8.9L19.3 8.87L19.29 8.83L19.28 8.8L19.26 8.76L19.25 8.73L19.23 8.69L19.2 8.66L19.16 8.62L19.12 8.58L19.06 8.54L19 8.51L18.94 8.47L18.87 8.43L18.8 8.4L18.73 8.36L18.65 8.33L18.58 8.29L18.51 8.26L18.43 8.23L18.36 8.21L18.3 8.18L18.23 8.16L18.18 8.14L18.13 8.12L18.08 8.1L18.05 8.09L18.02 8.08L18 8.07L17.99 8.07L17.98 8.07L17.98 8.07L17.97 8.07L17.96 8.07L17.94 8.06L17.93 8.06L17.91 8.06L17.89 8.06L17.87 8.06L17.84 8.06L17.81 8.06L17.78 8.06L17.74 8.06L17.7 8.06L17.66 8.06L17.61 8.06L17.56 8.07L17.5 8.07L17.44 8.07L17.38 8.08L17.32 8.1L17.27 8.12L17.22 8.16L17.18 8.2L17.15 8.24L17.12 8.29L17.09 8.34L17.06 8.4L17.04 8.46L17.03 8.52L17.01 8.58L17 8.64L16.99 8.7L16.98 8.76L16.98 8.82L16.97 8.87L16.97 8.92L16.97 8.96L16.97 9L16.97 9.03L16.97 9.05L16.97 9.07L16.97 9.07L16.5 9.17L16.5 9.17L16.5 9.18L16.5 9.2L16.5 9.21L16.49 9.22L16.49 9.24L16.49 9.25L16.48 9.27L16.48 9.29L16.47 9.32L16.47 9.34L16.46 9.36L16.46 9.39L16.45 9.42L16.44 9.45L16.43 9.48L16.42 9.51L16.4 9.54L16.39 9.57L16.38 9.6L16.36 9.63L16.34 9.67L16.32 9.7L16.3 9.73L16.27 9.76L16.25 9.79L16.22 9.81L16.19 9.83L16.16 9.85L16.13 9.86L16.1 9.87L16.08 9.88L16.05 9.89L16.02 9.89L15.99 9.89L15.96 9.9L15.94 9.9L15.91 9.9L15.89 9.9L15.87 9.89L15.86 9.89L15.84 9.89L15.83 9.89L15.82 9.89L15.81 9.89L15.8 9.88L15.79 9.88L15.78 9.87L15.77 9.86L15.75 9.85L15.73 9.84L15.71 9.83L15.69 9.81L15.67 9.79L15.64 9.77L15.62 9.74L15.6 9.72L15.58 9.68L15.56 9.65L15.55 9.61L15.54 9.57L15.53 9.52L15.52 9.47L15.52 9.42L15.52 9.36L15.53 9.3L15.54 9.24L15.56 9.17L15.57 9.12L15.57 9.08L15.57 9.04L15.56 8.99L15.55 8.95L15.53 8.91L15.5 8.87L15.47 8.83L15.44 8.8L15.41 8.76L15.37 8.72L15.34 8.69L15.3 8.66L15.26 8.62L15.22 8.59L15.19 8.56L15.15 8.54L15.12 8.51L15.09 8.48L15.06 8.46L15.04 8.44L15.02 8.42L15.01 8.4L15 8.39L14.99 8.37L14.98 8.36L14.96 8.34L14.94 8.33L14.92 8.32L14.89 8.31L14.87 8.3L14.84 8.29L14.8 8.28L14.77 8.27L14.74 8.27L14.7 8.26L14.67 8.26L14.64 8.25L14.6 8.25L14.57 8.24L14.55 8.24L14.52 8.24L14.5 8.23L14.48 8.23L14.46 8.23L14.45 8.23L14.44 8.23L14.31 8.29L15 9.07L15.22 9.57L14.84 9.54L14.83 9.56L14.82 9.57L14.81 9.58L14.79 9.6L14.77 9.61L14.75 9.63L14.73 9.65L14.71 9.67L14.69 9.69L14.67 9.71L14.65 9.73L14.62 9.75L14.6 9.77L14.58 9.79L14.55 9.81L14.53 9.82L14.51 9.83L14.49 9.84L14.48 9.85L14.46 9.86L14.45 9.86L14.44 9.85L14.42 9.84L14.41 9.83L14.4 9.82L14.39 9.8L14.38 9.78L14.37 9.76L14.37 9.73L14.36 9.71L14.36 9.68L14.36 9.65L14.35 9.63L14.35 9.6L14.35 9.56L14.35 9.53L14.34 9.5L14.34 9.47L14.34 9.44L14.34 9.41L14.34 9.37L14.33 9.34L14.33 9.31L14.32 9.28L14.32 9.26L14.31 9.23L14.29 9.14L14.26 9.06L14.22 8.99L14.18 8.92L14.14 8.86L14.09 8.8L14.04 8.75L13.99 8.7L13.94 8.66L13.89 8.62L13.84 8.58L13.79 8.55L13.74 8.53L13.69 8.5L13.64 8.48L13.6 8.47L13.56 8.45L13.52 8.44L13.49 8.43L13.46 8.43L13.44 8.42L13.42 8.42L13.41 8.42L13.41 8.42L13.4 8.42L13.39 8.43L13.37 8.44L13.36 8.45L13.35 8.46L13.33 8.47L13.31 8.48L13.29 8.5L13.27 8.51L13.25 8.52L13.23 8.54L13.2 8.55L13.18 8.56L13.15 8.57L13.13 8.59L13.11 8.6L13.08 8.61L13.06 8.62L13.03 8.62L13.01 8.63L12.99 8.63L12.97 8.63L12.96 8.64L12.95 8.63L12.94 8.63L12.92 8.63L12.91 8.63L12.87 8.63L12.86 8.63L12.84 8.63L12.82 8.62L12.8 8.62L12.78 8.62L12.76 8.62L12.74 8.62L12.72 8.62L12.7 8.62L12.68 8.63L12.65 8.63L12.63 8.63L12.61 8.64L12.59 8.64L12.57 8.65L12.55 8.66L12.53 8.67L12.5 8.68L12.47 8.7L12.44 8.72L12.41 8.75L12.39 8.77L12.36 8.8L12.33 8.83L12.31 8.86L12.28 8.9L12.26 8.93L12.24 8.96L12.21 9L12.19 9.03L12.17 9.07L12.15 9.1L12.13 9.14L12.11 9.17L12.09 9.21L12.07 9.24L12.05 9.27L12.03 9.3L12.01 9.33L11.99 9.36L11.97 9.38L11.96 9.39L11.96 9.4L11.96 9.4L11.95 9.41L11.95 9.42L11.95 9.43L11.94 9.43L11.94 9.44L11.94 9.45L11.94 9.46L11.93 9.47L11.93 9.48L11.93 9.5L11.92 9.5L11.92 9.53L11.92 9.54L11.91 9.55L11.91 9.55L11.91 9.56L11.91 9.57L11.91 9.57L11.88 9.64L11.85 9.7L11.81 9.75L11.78 9.8L11.74 9.84L11.7 9.87L11.66 9.9L11.62 9.92L11.58 9.94L11.53 9.95L11.49 9.96L11.44 9.97L11.4 9.97L11.35 9.97L11.31 9.97L11.26 9.97L11.21 9.97L11.17 9.97L11.12 9.96L11.08 9.96L11.03 9.96L10.99 9.97L10.95 9.97L10.91 9.98L10.88 9.98L10.85 9.99L10.81 9.99L10.78 9.99L10.74 9.98L10.71 9.98L10.67 9.97L10.63 9.96L10.6 9.95L10.56 9.94L10.53 9.93L10.49 9.92L10.46 9.91L10.43 9.9L10.4 9.89L10.37 9.87L10.34 9.86L10.32 9.85L10.3 9.85L10.28 9.84L10.27 9.83L10.26 9.83L10.25 9.82L10.25 9.79L10.25 9.77L10.25 9.74L10.25 9.7L10.25 9.66L10.25 9.62L10.25 9.57L10.25 9.52L10.25 9.46L10.25 9.4L10.26 9.34L10.26 9.27L10.26 9.21L10.26 9.14L10.26 9.07L10.26 9L10.27 8.94L10.27 8.87L10.27 8.8L10.27 8.73L10.28 8.67L10.28 8.6L10.28 8.59L10.29 8.58L10.3 8.56L10.31 8.56L10.32 8.55L10.34 8.54L10.36 8.54L10.38 8.54L10.4 8.54L10.42 8.54L10.45 8.54L10.48 8.54L10.51 8.54L10.54 8.54L10.57 8.55L10.64 8.56L10.68 8.56L10.71 8.56L10.75 8.57L10.79 8.57L10.83 8.57L10.87 8.57L10.91 8.57L10.94 8.57L10.97 8.57L11 8.57L11.03 8.57L11.06 8.58L11.09 8.58L11.12 8.58L11.14 8.58L11.17 8.58L11.2 8.58L11.23 8.59L11.25 8.59L11.28 8.59L11.31 8.59L11.33 8.59L11.35 8.59L11.38 8.6L11.4 8.6L11.42 8.6L11.44 8.6L11.45 8.6L11.47 8.6L11.49 8.6L11.5 8.6L11.53 8.6L11.55 8.6L11.57 8.6L11.59 8.59L11.6 8.59L11.61 8.58L11.62 8.58L11.62 8.57L11.62 8.56L11.63 8.55L11.62 8.54L11.62 8.52L11.62 8.51L11.62 8.49L11.62 8.48L11.62 8.46L11.61 8.44L11.61 8.42L11.62 8.39L11.62 8.37L11.62 8.34L11.63 8.32L11.64 8.29L11.66 8.26L11.67 8.23L11.68 8.2L11.68 8.17L11.68 8.15L11.68 8.12L11.67 8.1L11.66 8.08L11.65 8.05L11.64 8.03L11.63 8.02L11.61 8L11.59 7.98L11.57 7.97L11.56 7.95L11.54 7.94L11.52 7.93L11.5 7.92L11.49 7.91L11.47 7.9L11.46 7.9L11.45 7.89L11.44 7.89L11.44 7.88L11.43 7.88L11.41 7.88L11.4 7.88L11.38 7.88L11.35 7.88L11.33 7.88L11.3 7.87L11.27 7.87L11.24 7.86L11.21 7.86L11.17 7.85L11.14 7.84L11.11 7.84L11.07 7.83L11.04 7.82L11.02 7.81L10.99 7.79L10.97 7.78L10.95 7.77L10.93 7.75L10.92 7.73L10.91 7.72L10.91 7.7L10.91 7.68L10.9 7.67L10.9 7.66L10.9 7.64L10.89 7.63L10.89 7.62L10.89 7.61L10.88 7.6L10.88 7.58L10.88 7.57L10.88 7.57L10.88 7.56L10.88 7.55L10.88 7.54L10.89 7.53L10.9 7.52L10.91 7.52L10.92 7.51L10.93 7.5L10.95 7.5L10.97 7.49L11 7.49L11.03 7.48L11.06 7.48L11.08 7.48L11.1 7.47L11.17 7.46L11.37 7.43L11.44 7.42L11.47 7.42L11.54 7.41L11.6 7.4L11.65 7.39L11.67 7.39L11.69 7.39L11.71 7.39L11.72 7.38L11.73 7.38L11.75 7.38L11.76 7.37L11.78 7.36L11.79 7.35L11.81 7.34L11.82 7.33L11.84 7.31L11.85 7.3L11.86 7.29L11.88 7.27L11.89 7.26L11.9 7.24L11.92 7.23L11.93 7.21L11.94 7.19L11.96 7.18L11.97 7.17L11.99 7.15L12 7.14L12.02 7.13L12.03 7.12L12.05 7.11L12.06 7.1L12.08 7.1L12.1 7.09L12.13 7.08L12.15 7.08L12.17 7.07L12.2 7.06L12.22 7.06L12.27 7.05L12.29 7.04L12.32 7.03L12.34 7.03L12.36 7.02L12.38 7.01L12.4 7.01L12.42 7L12.44 6.99L12.45 6.98L12.47 6.97L12.48 6.96L12.49 6.95L12.49 6.94L12.5 6.93L12.5 6.92L12.5 6.89L12.51 6.87L12.53 6.84L12.55 6.82L12.58 6.8L12.61 6.78L12.64 6.76L12.68 6.74L12.72 6.73L12.76 6.71L12.8 6.7L12.84 6.68L12.89 6.67L12.93 6.66L12.97 6.65L13.01 6.64L13.05 6.63L13.08 6.62L13.11 6.62L13.14 6.61L13.16 6.61L13.17 6.61L13.19 6.6L13.19 6.6L13.2 6.59L13.2 6.58L13.21 6.57L13.22 6.55L13.23 6.53L13.24 6.52L13.25 6.49L13.26 6.47L13.27 6.45L13.28 6.42L13.29 6.39L13.3 6.36L13.31 6.33L13.31 6.3L13.32 6.27L13.33 6.24L13.33 6.21L13.33 6.17L13.33 6.14L13.33 6.11L13.32 6.07L13.31 6.04L13.3 5.99L13.29 5.95L13.29 5.91L13.3 5.87L13.3 5.83L13.31 5.79L13.33 5.76L13.34 5.73L13.36 5.7L13.38 5.67L13.4 5.64L13.43 5.62L13.45 5.6L13.47 5.57L13.5 5.56L13.52 5.54L13.54 5.53L13.56 5.51L13.58 5.5L13.59 5.49L13.61 5.49L13.62 5.48L13.62 5.48L13.63 5.48L14.06 6.1L15.41 6.07L15.41 6.07L15.42 6.06L15.42 6.05L15.43 6.04L15.44 6.03L15.44 6.02L15.45 6L15.46 5.98L15.47 5.97L15.49 5.95L15.5 5.93L15.51 5.9L15.52 5.88L15.53 5.86L15.54 5.83L15.56 5.8L15.57 5.77L15.58 5.74L15.59 5.71L15.6 5.67L15.61 5.64L15.63 5.6L15.64 5.57L15.66 5.54L15.68 5.5L15.71 5.48L15.74 5.45L15.77 5.42L15.81 5.4L15.85 5.38L15.89 5.36L15.93 5.34L15.97 5.32L16.01 5.3L16.06 5.28L16.1 5.27L16.14 5.25L16.18 5.23L16.22 5.22L16.25 5.2L16.28 5.18L16.31 5.16L16.33 5.14L16.35 5.12L16.37 5.1L16.38 5.07L16.39 5.01L16.39 4.96L16.39 4.92L16.39 4.88L16.38 4.85L16.36 4.82L16.35 4.79L16.33 4.77L16.31 4.76L16.28 4.75L16.25 4.74L16.23 4.73L16.19 4.72L16.16 4.72L16.13 4.72L16.1 4.72L16.06 4.71L16.03 4.71L16 4.71L15.96 4.7L15.93 4.7L15.9 4.69L15.87 4.68L15.84 4.67L15.83 4.66L15.82 4.65L15.82 4.64L15.81 4.63L15.81 4.62L15.81 4.61L15.81 4.6L15.82 4.59L15.82 4.58L15.82 4.57L15.83 4.56L15.84 4.55L15.84 4.54L15.85 4.53L15.85 4.52L15.86 4.51L15.86 4.5L15.86 4.49L15.86 4.49L15.86 4.48L15.86 4.48L15.86 4.48L15.85 4.48L15.84 4.48L15.83 4.48L15.81 4.48L15.79 4.48L15.77 4.48L15.75 4.47L15.73 4.47L15.7 4.47L15.68 4.46L15.66 4.46L15.63 4.45L15.61 4.45L15.59 4.45L15.56 4.44L15.54 4.44L15.52 4.44L15.49 4.45L15.47 4.45L15.45 4.45L15.43 4.46L15.41 4.47L15.39 4.49L15.38 4.5L15.36 4.52L15.34 4.54L15.33 4.56L15.32 4.58L15.31 4.61L15.31 4.64L15.3 4.67L15.29 4.7L15.28 4.73L15.28 4.77L15.27 4.81L15.27 4.84L15.26 4.88L15.25 4.92L15.25 4.96L15.24 5L15.23 5.03L15.23 5.07L15.22 5.11L15.21 5.14L15.2 5.18L15.19 5.21L15.17 5.24L15.16 5.27L15.14 5.3L15.13 5.32L15.08 5.37L15.04 5.41L14.99 5.45L14.94 5.48L14.89 5.51L14.84 5.54L14.79 5.56L14.74 5.57L14.69 5.59L14.64 5.59L14.58 5.6L14.53 5.6L14.49 5.59L14.44 5.58L14.4 5.57L14.35 5.56L14.31 5.54L14.28 5.52L14.25 5.49L14.22 5.46L14.2 5.43L14.18 5.4L14.16 5.36L14.16 5.32L14.15 5.28L14.15 5.23L14.15 5.18L14.15 5.13L14.15 5.07L14.15 5.02L14.16 4.96L14.16 4.9L14.16 4.85L14.17 4.8L14.17 4.74L14.18 4.7L14.18 4.65L14.18 4.61L14.19 4.58L14.19 4.55L14.19 4.53L14.19 4.52L14.19 4.51L14.19 4.51L14.18 4.53L14.18 4.55L14.17 4.59L14.16 4.63L14.13 4.72L14.1 4.79L14.06 4.86L14.02 4.92L13.97 4.97L13.91 5.01L13.85 5.05L13.79 5.08L13.73 5.11L13.66 5.13L13.6 5.14L13.53 5.15L13.47 5.16L13.41 5.16L13.34 5.16L13.29 5.16L13.23 5.16L13.18 5.16L13.14 5.15L13.1 5.15L13.07 5.14L13.05 5.14L13.04 5.14L13.03 5.13L13.02 5.13L13.02 5.12L13 5.11L12.99 5.09L12.98 5.08L12.96 5.06L12.94 5.04L12.93 5.01L12.91 4.99L12.89 4.96L12.87 4.93L12.86 4.9L12.85 4.86L12.84 4.83L12.83 4.8L12.82 4.76L12.82 4.73L12.82 4.69L12.83 4.65L12.84 4.62L12.86 4.58L12.88 4.54L12.91 4.51L12.94 4.47L12.97 4.44L12.99 4.41L13.02 4.38L13.04 4.35L13.07 4.32L13.09 4.3L13.11 4.27L13.13 4.25L13.15 4.22L13.17 4.2L13.19 4.18L13.21 4.17L13.23 4.15L13.24 4.13L13.26 4.12L13.28 4.1L13.29 4.09L13.31 4.08L13.33 4.07L13.35 4.06L13.37 4.05L13.39 4.05L13.41 4.04L13.43 4.03L13.44 4.02L13.46 4.01L13.47 4L13.49 3.98L13.5 3.96L13.51 3.94L13.53 3.92L13.54 3.9L13.56 3.87L13.58 3.85L13.6 3.82L13.62 3.79L13.65 3.76L13.68 3.73L13.71 3.7L13.75 3.67L13.79 3.64L13.83 3.6L13.89 3.57L13.94 3.54L14.01 3.51L14.08 3.48L14.16 3.45L14.24 3.42L14.34 3.38L14.45 3.35L14.56 3.32L14.68 3.29L14.81 3.26L14.95 3.23L15.08 3.2L15.23 3.17L15.37 3.14L15.51 3.12L15.65 3.09L15.79 3.07L15.93 3.05L16.07 3.03L16.2 3.01L16.32 2.99L16.44 2.98L16.55 2.97L16.65 2.97L16.74 2.96L16.82 2.97L16.88 2.97L16.94 2.98L16.98 2.98L17.04 2.98L17.1 2.96L17.18 2.94L17.27 2.92L17.37 2.89L17.47 2.85L17.59 2.81L17.71 2.76L17.84 2.72L17.98 2.67L18.13 2.62L18.28 2.56L18.44 2.51L18.61 2.46L18.78 2.41L18.95 2.37L19.13 2.32L19.31 2.28L19.49 2.25L19.68 2.22L19.87 2.19L20.06 2.18L20.25 2.17L20.72 2.44L21.18 2.73ZM20.9 7.95L20.88 7.96L20.88 7.98L20.83 8.04L20.73 8.19L20.61 8.35L20.5 8.45L20.43 8.55L20.39 8.72L20.4 8.93L20.44 9.13L20.5 9.39L20.55 9.7L20.59 10.01L20.59 10.23L20.66 10.34L20.82 10.4L21 10.42L21.13 10.42L21.25 10.39L21.41 10.34L21.56 10.26L21.63 10.17L21.62 9.99L21.6 9.72L21.56 9.47L21.5 9.35L21.42 9.31L21.32 9.2L21.25 9.05L21.25 8.85L21.28 8.61L21.29 8.35L21.28 8.14L21.25 8.04L21.2 8.01L21.11 7.98L21.02 7.96L20.94 7.95L20.92 7.95L20.9 7.95Z" id="ac40YBp3T"></path></defs><g><g><g><use xlink:href="#bPAlpetgd" opacity="1" fill="#34485c" fill-opacity="1"></use><g><use xlink:href="#bPAlpetgd" opacity="1" fill-opacity="0" stroke="#000000" stroke-width="1" stroke-opacity="0"></use></g></g><g><use xlink:href="#ac40YBp3T" opacity="1" fill="#60c5b8" fill-opacity="1"></use><g><use xlink:href="#ac40YBp3T" opacity="1" fill-opacity="0" stroke="#000000" stroke-width="1" stroke-opacity="0"></use></g></g></g></g></svg>